<?xml version="1.0" encoding="UTF-8" standalone="no"?>
<!DOCTYPE svg PUBLIC "-//W3C//DTD SVG 1.1//EN"
 "http://www.w3.org/Graphics/SVG/1.1/DTD/svg11.dtd">
<!-- Generated by graphviz version 2.40.1 (20161225.0304)
 -->
<!-- Title: models_diagram Pages: 1 -->
<svg width="2713pt" height="2139pt"
 viewBox="0.00 0.00 2712.61 2139.36" xmlns="http://www.w3.org/2000/svg" xmlns:xlink="http://www.w3.org/1999/xlink">
<g id="graph0" class="graph" transform="scale(1 1) rotate(0) translate(36 2103.3596)">
<title>models_diagram</title>
<polygon fill="#ffffff" stroke="transparent" points="-36,36 -36,-2103.3596 2676.608,-2103.3596 2676.608,36 -36,36"/>
<!-- AcademicSession -->
<g id="node1" class="node">
<title>AcademicSession</title>
<polygon fill="#add8e6" stroke="transparent" points="0,-952.6339 0,-974.6339 98,-974.6339 98,-952.6339 0,-952.6339"/>
<polygon fill="none" stroke="#000000" points="0,-952.6339 0,-974.6339 98,-974.6339 98,-952.6339 0,-952.6339"/>
<text text-anchor="start" x="13.456" y="-961.6339" font-family="Times,serif" font-weight="bold" font-size="10.00" fill="#000000">AcademicSession</text>
<polygon fill="none" stroke="#000000" points="0,-930.6339 0,-952.6339 98,-952.6339 98,-930.6339 0,-930.6339"/>
<text text-anchor="start" x="5" y="-939.6339" font-family="Times,serif" text-decoration="underline" font-size="10.00" fill="#000000">id</text>
<text text-anchor="start" x="12.779" y="-939.6339" font-family="Times,serif" font-size="10.00" fill="#000000">: NUMBER</text>
<polygon fill="none" stroke="#000000" points="0,-908.6339 0,-930.6339 98,-930.6339 98,-908.6339 0,-908.6339"/>
<text text-anchor="start" x="5" y="-916.6339" font-family="Times,serif" font-size="10.00" fill="#000000">name: STRING</text>
<polygon fill="none" stroke="#000000" points="0,-886.6339 0,-908.6339 98,-908.6339 98,-886.6339 0,-886.6339"/>
<text text-anchor="start" x="5" y="-894.6339" font-family="Times,serif" font-size="10.00" fill="#000000">code: STRING</text>
<polygon fill="none" stroke="#000000" points="0,-864.6339 0,-886.6339 98,-886.6339 98,-864.6339 0,-864.6339"/>
<text text-anchor="start" x="5" y="-872.6339" font-family="Times,serif" font-size="10.00" fill="#000000">start_date: DATE</text>
<polygon fill="none" stroke="#000000" points="0,-842.6339 0,-864.6339 98,-864.6339 98,-842.6339 0,-842.6339"/>
<text text-anchor="start" x="5" y="-850.6339" font-family="Times,serif" font-size="10.00" fill="#000000">end_date: DATE</text>
<polygon fill="none" stroke="#000000" points="0,-820.6339 0,-842.6339 98,-842.6339 98,-820.6339 0,-820.6339"/>
<text text-anchor="start" x="4.7075" y="-828.6339" font-family="Times,serif" font-size="10.00" fill="#000000">is_active: BOOLEAN</text>
<polygon fill="none" stroke="#000000" points="0,-798.6339 0,-820.6339 98,-820.6339 98,-798.6339 0,-798.6339"/>
<text text-anchor="start" x="5" y="-806.6339" font-family="Times,serif" font-size="10.00" fill="#000000">created_at: DATE</text>
<polygon fill="none" stroke="#000000" points="0,-776.6339 0,-798.6339 98,-798.6339 98,-776.6339 0,-776.6339"/>
<text text-anchor="start" x="5" y="-784.6339" font-family="Times,serif" font-size="10.00" fill="#000000">updated_at: DATE</text>
</g>
<!-- Department -->
<g id="node2" class="node">
<title>Department</title>
<polygon fill="#add8e6" stroke="transparent" points="2044.3267,-192.5818 2044.3267,-214.5818 2142.3267,-214.5818 2142.3267,-192.5818 2044.3267,-192.5818"/>
<polygon fill="none" stroke="#000000" points="2044.3267,-192.5818 2044.3267,-214.5818 2142.3267,-214.5818 2142.3267,-192.5818 2044.3267,-192.5818"/>
<text text-anchor="start" x="2069.7257" y="-201.5818" font-family="Times,serif" font-weight="bold" font-size="10.00" fill="#000000">Department</text>
<polygon fill="none" stroke="#000000" points="2044.3267,-170.5818 2044.3267,-192.5818 2142.3267,-192.5818 2142.3267,-170.5818 2044.3267,-170.5818"/>
<text text-anchor="start" x="2049.3267" y="-179.5818" font-family="Times,serif" text-decoration="underline" font-size="10.00" fill="#000000">id</text>
<text text-anchor="start" x="2057.1057" y="-179.5818" font-family="Times,serif" font-size="10.00" fill="#000000">: NUMBER</text>
<polygon fill="none" stroke="#000000" points="2044.3267,-148.5818 2044.3267,-170.5818 2142.3267,-170.5818 2142.3267,-148.5818 2044.3267,-148.5818"/>
<text text-anchor="start" x="2049.3267" y="-156.5818" font-family="Times,serif" font-size="10.00" fill="#000000">name: STRING</text>
<polygon fill="none" stroke="#000000" points="2044.3267,-126.5818 2044.3267,-148.5818 2142.3267,-148.5818 2142.3267,-126.5818 2044.3267,-126.5818"/>
<text text-anchor="start" x="2049.3267" y="-134.5818" font-family="Times,serif" font-size="10.00" fill="#000000">code: STRING</text>
<polygon fill="none" stroke="#000000" points="2044.3267,-104.5818 2044.3267,-126.5818 2142.3267,-126.5818 2142.3267,-104.5818 2044.3267,-104.5818"/>
<text text-anchor="start" x="2049.3267" y="-112.5818" font-family="Times,serif" font-size="10.00" fill="#000000">type: ENUM</text>
<polygon fill="none" stroke="#000000" points="2044.3267,-82.5818 2044.3267,-104.5818 2142.3267,-104.5818 2142.3267,-82.5818 2044.3267,-82.5818"/>
<text text-anchor="start" x="2049.0282" y="-91.5818" font-family="Times,serif" font-style="italic" text-decoration="underline" font-size="10.00" fill="#000000">faculty_id</text>
<text text-anchor="start" x="2089.5722" y="-91.5818" font-family="Times,serif" font-size="10.00" fill="#000000">: NUMBER</text>
<polygon fill="none" stroke="#000000" points="2044.3267,-60.5818 2044.3267,-82.5818 2142.3267,-82.5818 2142.3267,-60.5818 2044.3267,-60.5818"/>
<text text-anchor="start" x="2049.3267" y="-68.5818" font-family="Times,serif" font-size="10.00" fill="#000000">created_at: DATE</text>
<polygon fill="none" stroke="#000000" points="2044.3267,-38.5818 2044.3267,-60.5818 2142.3267,-60.5818 2142.3267,-38.5818 2044.3267,-38.5818"/>
<text text-anchor="start" x="2049.3267" y="-46.5818" font-family="Times,serif" font-size="10.00" fill="#000000">updated_at: DATE</text>
</g>
<!-- Faculty -->
<g id="node9" class="node">
<title>Faculty</title>
<polygon fill="#add8e6" stroke="transparent" points="1593.6552,-110 1593.6552,-132 1678.6552,-132 1678.6552,-110 1593.6552,-110"/>
<polygon fill="none" stroke="#000000" points="1593.6552,-110 1593.6552,-132 1678.6552,-132 1678.6552,-110 1593.6552,-110"/>
<text text-anchor="start" x="1621.1577" y="-119" font-family="Times,serif" font-weight="bold" font-size="10.00" fill="#000000">Faculty</text>
<polygon fill="none" stroke="#000000" points="1593.6552,-88 1593.6552,-110 1678.6552,-110 1678.6552,-88 1593.6552,-88"/>
<text text-anchor="start" x="1598.6552" y="-97" font-family="Times,serif" text-decoration="underline" font-size="10.00" fill="#000000">id</text>
<text text-anchor="start" x="1606.4342" y="-97" font-family="Times,serif" font-size="10.00" fill="#000000">: NUMBER</text>
<polygon fill="none" stroke="#000000" points="1593.6552,-66 1593.6552,-88 1678.6552,-88 1678.6552,-66 1593.6552,-66"/>
<text text-anchor="start" x="1598.6552" y="-74" font-family="Times,serif" font-size="10.00" fill="#000000">name: STRING</text>
<polygon fill="none" stroke="#000000" points="1593.6552,-44 1593.6552,-66 1678.6552,-66 1678.6552,-44 1593.6552,-44"/>
<text text-anchor="start" x="1598.6552" y="-52" font-family="Times,serif" font-size="10.00" fill="#000000">code: STRING</text>
<polygon fill="none" stroke="#000000" points="1593.6552,-22 1593.6552,-44 1678.6552,-44 1678.6552,-22 1593.6552,-22"/>
<text text-anchor="start" x="1598.6552" y="-30" font-family="Times,serif" font-size="10.00" fill="#000000">created_at: DATE</text>
<polygon fill="none" stroke="#000000" points="1593.6552,0 1593.6552,-22 1678.6552,-22 1678.6552,0 1593.6552,0"/>
<text text-anchor="start" x="1598.2502" y="-8" font-family="Times,serif" font-size="10.00" fill="#000000">updated_at: DATE</text>
</g>
<!-- Department&#45;&gt;Faculty -->
<g id="edge5" class="edge">
<title>Department&#45;&gt;Faculty</title>
<path fill="none" stroke="#000000" stroke-width=".75" d="M2037.9592,-119.2528C1945.5344,-107.0186 1761.7605,-82.6925 1678.4664,-71.6669"/>
<polygon fill="#000000" stroke="#000000" stroke-width=".75" points="2037.9648,-119.2535 2043.5586,-122.7175 2040.9389,-119.6472 2043.913,-120.0409 2043.913,-120.0409 2043.913,-120.0409 2040.9389,-119.6472 2044.2673,-117.3642 2037.9648,-119.2535 2037.9648,-119.2535"/>
</g>
<!-- EnrollmentCheckin -->
<g id="node3" class="node">
<title>EnrollmentCheckin</title>
<polygon fill="#add8e6" stroke="transparent" points="1584.5112,-2033.5238 1584.5112,-2055.5238 1698.5112,-2055.5238 1698.5112,-2033.5238 1584.5112,-2033.5238"/>
<polygon fill="none" stroke="#000000" points="1584.5112,-2033.5238 1584.5112,-2055.5238 1698.5112,-2055.5238 1698.5112,-2033.5238 1584.5112,-2033.5238"/>
<text text-anchor="start" x="1602.3517" y="-2042.5238" font-family="Times,serif" font-weight="bold" font-size="10.00" fill="#000000">EnrollmentCheckin</text>
<polygon fill="none" stroke="#000000" points="1584.5112,-2011.5238 1584.5112,-2033.5238 1698.5112,-2033.5238 1698.5112,-2011.5238 1584.5112,-2011.5238"/>
<text text-anchor="start" x="1589.5112" y="-2020.5238" font-family="Times,serif" text-decoration="underline" font-size="10.00" fill="#000000">id</text>
<text text-anchor="start" x="1597.2902" y="-2020.5238" font-family="Times,serif" font-size="10.00" fill="#000000">: NUMBER</text>
<polygon fill="none" stroke="#000000" points="1584.5112,-1989.5238 1584.5112,-2011.5238 1698.5112,-2011.5238 1698.5112,-1989.5238 1584.5112,-1989.5238"/>
<text text-anchor="start" x="1589.4337" y="-1998.5238" font-family="Times,serif" font-style="italic" text-decoration="underline" font-size="10.00" fill="#000000">enrollment_id</text>
<text text-anchor="start" x="1645.5357" y="-1998.5238" font-family="Times,serif" font-size="10.00" fill="#000000">: NUMBER</text>
<polygon fill="none" stroke="#000000" points="1584.5112,-1967.5238 1584.5112,-1989.5238 1698.5112,-1989.5238 1698.5112,-1967.5238 1584.5112,-1967.5238"/>
<text text-anchor="start" x="1589.5112" y="-1975.5238" font-family="Times,serif" font-size="10.00" fill="#000000">scanner_id: STRING</text>
<polygon fill="none" stroke="#000000" points="1584.5112,-1945.5238 1584.5112,-1967.5238 1698.5112,-1967.5238 1698.5112,-1945.5238 1584.5112,-1945.5238"/>
<text text-anchor="start" x="1589.5112" y="-1953.5238" font-family="Times,serif" font-size="10.00" fill="#000000">checked_in_at: DATE</text>
<polygon fill="none" stroke="#000000" points="1584.5112,-1923.5238 1584.5112,-1945.5238 1698.5112,-1945.5238 1698.5112,-1923.5238 1584.5112,-1923.5238"/>
<text text-anchor="start" x="1589.5112" y="-1931.5238" font-family="Times,serif" font-size="10.00" fill="#000000">created_at: DATE</text>
<polygon fill="none" stroke="#000000" points="1584.5112,-1901.5238 1584.5112,-1923.5238 1698.5112,-1923.5238 1698.5112,-1901.5238 1584.5112,-1901.5238"/>
<text text-anchor="start" x="1589.5112" y="-1909.5238" font-family="Times,serif" font-size="10.00" fill="#000000">updated_at: DATE</text>
</g>
<!-- EventEnrollment -->
<g id="node6" class="node">
<title>EventEnrollment</title>
<polygon fill="#add8e6" stroke="transparent" points="1628.1345,-1565.3674 1628.1345,-1587.3674 1739.1345,-1587.3674 1739.1345,-1565.3674 1628.1345,-1565.3674"/>
<polygon fill="none" stroke="#000000" points="1628.1345,-1565.3674 1628.1345,-1587.3674 1739.1345,-1587.3674 1739.1345,-1565.3674 1628.1345,-1565.3674"/>
<text text-anchor="start" x="1649.4745" y="-1574.3674" font-family="Times,serif" font-weight="bold" font-size="10.00" fill="#000000">EventEnrollment</text>
<polygon fill="none" stroke="#000000" points="1628.1345,-1543.3674 1628.1345,-1565.3674 1739.1345,-1565.3674 1739.1345,-1543.3674 1628.1345,-1543.3674"/>
<text text-anchor="start" x="1633.1345" y="-1552.3674" font-family="Times,serif" text-decoration="underline" font-size="10.00" fill="#000000">id</text>
<text text-anchor="start" x="1640.9135" y="-1552.3674" font-family="Times,serif" font-size="10.00" fill="#000000">: NUMBER</text>
<polygon fill="none" stroke="#000000" points="1628.1345,-1521.3674 1628.1345,-1543.3674 1739.1345,-1543.3674 1739.1345,-1521.3674 1628.1345,-1521.3674"/>
<text text-anchor="start" x="1633.1345" y="-1530.3674" font-family="Times,serif" font-style="italic" text-decoration="underline" font-size="10.00" fill="#000000">user_id</text>
<text text-anchor="start" x="1662.5705" y="-1530.3674" font-family="Times,serif" font-size="10.00" fill="#000000">: NUMBER</text>
<polygon fill="none" stroke="#000000" points="1628.1345,-1499.3674 1628.1345,-1521.3674 1739.1345,-1521.3674 1739.1345,-1499.3674 1628.1345,-1499.3674"/>
<text text-anchor="start" x="1633.1345" y="-1508.3674" font-family="Times,serif" font-style="italic" text-decoration="underline" font-size="10.00" fill="#000000">event_id</text>
<text text-anchor="start" x="1667.5705" y="-1508.3674" font-family="Times,serif" font-size="10.00" fill="#000000">: NUMBER</text>
<polygon fill="none" stroke="#000000" points="1628.1345,-1477.3674 1628.1345,-1499.3674 1739.1345,-1499.3674 1739.1345,-1477.3674 1628.1345,-1477.3674"/>
<text text-anchor="start" x="1633.1345" y="-1485.3674" font-family="Times,serif" font-size="10.00" fill="#000000">status: ENUM</text>
<polygon fill="none" stroke="#000000" points="1628.1345,-1455.3674 1628.1345,-1477.3674 1739.1345,-1477.3674 1739.1345,-1455.3674 1628.1345,-1455.3674"/>
<text text-anchor="start" x="1633.1345" y="-1463.3674" font-family="Times,serif" font-size="10.00" fill="#000000">check_in_time: DATE</text>
<polygon fill="none" stroke="#000000" points="1628.1345,-1433.3674 1628.1345,-1455.3674 1739.1345,-1455.3674 1739.1345,-1433.3674 1628.1345,-1433.3674"/>
<text text-anchor="start" x="1633.1345" y="-1441.3674" font-family="Times,serif" font-size="10.00" fill="#000000">qr_token: STRING</text>
<polygon fill="none" stroke="#000000" points="1628.1345,-1411.3674 1628.1345,-1433.3674 1739.1345,-1433.3674 1739.1345,-1411.3674 1628.1345,-1411.3674"/>
<text text-anchor="start" x="1633.1345" y="-1419.3674" font-family="Times,serif" font-size="10.00" fill="#000000">qr_issued_at: DATE</text>
<polygon fill="none" stroke="#000000" points="1628.1345,-1389.3674 1628.1345,-1411.3674 1739.1345,-1411.3674 1739.1345,-1389.3674 1628.1345,-1389.3674"/>
<text text-anchor="start" x="1632.9575" y="-1397.3674" font-family="Times,serif" font-size="10.00" fill="#000000">reminder_sent_at: DATE</text>
<polygon fill="none" stroke="#000000" points="1628.1345,-1367.3674 1628.1345,-1389.3674 1739.1345,-1389.3674 1739.1345,-1367.3674 1628.1345,-1367.3674"/>
<text text-anchor="start" x="1633.1345" y="-1375.3674" font-family="Times,serif" font-size="10.00" fill="#000000">created_at: DATE</text>
<polygon fill="none" stroke="#000000" points="1628.1345,-1345.3674 1628.1345,-1367.3674 1739.1345,-1367.3674 1739.1345,-1345.3674 1628.1345,-1345.3674"/>
<text text-anchor="start" x="1633.1345" y="-1353.3674" font-family="Times,serif" font-size="10.00" fill="#000000">updated_at: DATE</text>
</g>
<!-- EnrollmentCheckin&#45;&gt;EventEnrollment -->
<g id="edge6" class="edge">
<title>EnrollmentCheckin&#45;&gt;EventEnrollment</title>
<path fill="none" stroke="#000000" stroke-width=".75" d="M1648.2897,-1895.1168C1655.0716,-1811.6692 1665.5755,-1682.4226 1673.2786,-1587.6406"/>
<polygon fill="#000000" stroke="#000000" stroke-width=".75" points="1648.2738,-1895.314 1645.0965,-1901.0755 1648.0307,-1898.3041 1647.7877,-1901.2943 1647.7877,-1901.2943 1647.7877,-1901.2943 1648.0307,-1898.3041 1650.4788,-1901.513 1648.2738,-1895.314 1648.2738,-1895.314"/>
</g>
<!-- Event -->
<g id="node4" class="node">
<title>Event</title>
<polygon fill="#add8e6" stroke="transparent" points="1171.7485,-1676.8097 1171.7485,-1698.8097 1291.7485,-1698.8097 1291.7485,-1676.8097 1171.7485,-1676.8097"/>
<polygon fill="none" stroke="#000000" points="1171.7485,-1676.8097 1171.7485,-1698.8097 1291.7485,-1698.8097 1291.7485,-1676.8097 1171.7485,-1676.8097"/>
<text text-anchor="start" x="1220.085" y="-1685.8097" font-family="Times,serif" font-weight="bold" font-size="10.00" fill="#000000">Event</text>
<polygon fill="none" stroke="#000000" points="1171.7485,-1654.8097 1171.7485,-1676.8097 1291.7485,-1676.8097 1291.7485,-1654.8097 1171.7485,-1654.8097"/>
<text text-anchor="start" x="1176.7485" y="-1663.8097" font-family="Times,serif" text-decoration="underline" font-size="10.00" fill="#000000">id</text>
<text text-anchor="start" x="1184.5275" y="-1663.8097" font-family="Times,serif" font-size="10.00" fill="#000000">: NUMBER</text>
<polygon fill="none" stroke="#000000" points="1171.7485,-1632.8097 1171.7485,-1654.8097 1291.7485,-1654.8097 1291.7485,-1632.8097 1171.7485,-1632.8097"/>
<text text-anchor="start" x="1176.7485" y="-1640.8097" font-family="Times,serif" font-size="10.00" fill="#000000">title: STRING</text>
<polygon fill="none" stroke="#000000" points="1171.7485,-1610.8097 1171.7485,-1632.8097 1291.7485,-1632.8097 1291.7485,-1610.8097 1171.7485,-1610.8097"/>
<text text-anchor="start" x="1176.7485" y="-1618.8097" font-family="Times,serif" font-size="10.00" fill="#000000">description: TEXT</text>
<polygon fill="none" stroke="#000000" points="1171.7485,-1588.8097 1171.7485,-1610.8097 1291.7485,-1610.8097 1291.7485,-1588.8097 1171.7485,-1588.8097"/>
<text text-anchor="start" x="1176.7485" y="-1596.8097" font-family="Times,serif" font-size="10.00" fill="#000000">duration: NUMBER</text>
<polygon fill="none" stroke="#000000" points="1171.7485,-1566.8097 1171.7485,-1588.8097 1291.7485,-1588.8097 1291.7485,-1566.8097 1171.7485,-1566.8097"/>
<text text-anchor="start" x="1176.7485" y="-1574.8097" font-family="Times,serif" font-size="10.00" fill="#000000">category: ENUM</text>
<polygon fill="none" stroke="#000000" points="1171.7485,-1544.8097 1171.7485,-1566.8097 1291.7485,-1566.8097 1291.7485,-1544.8097 1171.7485,-1544.8097"/>
<text text-anchor="start" x="1176.7485" y="-1552.8097" font-family="Times,serif" font-size="10.00" fill="#000000">thumbnail: STRING</text>
<polygon fill="none" stroke="#000000" points="1171.7485,-1522.8097 1171.7485,-1544.8097 1291.7485,-1544.8097 1291.7485,-1522.8097 1171.7485,-1522.8097"/>
<text text-anchor="start" x="1176.616" y="-1531.8097" font-family="Times,serif" font-style="italic" text-decoration="underline" font-size="10.00" fill="#000000">organisation_id</text>
<text text-anchor="start" x="1238.828" y="-1531.8097" font-family="Times,serif" font-size="10.00" fill="#000000">: NUMBER</text>
<polygon fill="none" stroke="#000000" points="1171.7485,-1500.8097 1171.7485,-1522.8097 1291.7485,-1522.8097 1291.7485,-1500.8097 1171.7485,-1500.8097"/>
<text text-anchor="start" x="1176.7485" y="-1509.8097" font-family="Times,serif" font-style="italic" text-decoration="underline" font-size="10.00" fill="#000000">session_id</text>
<text text-anchor="start" x="1218.4125" y="-1509.8097" font-family="Times,serif" font-size="10.00" fill="#000000">: NUMBER</text>
<polygon fill="none" stroke="#000000" points="1171.7485,-1478.8097 1171.7485,-1500.8097 1291.7485,-1500.8097 1291.7485,-1478.8097 1171.7485,-1478.8097"/>
<text text-anchor="start" x="1176.7485" y="-1487.8097" font-family="Times,serif" font-style="italic" text-decoration="underline" font-size="10.00" fill="#000000">venue_id</text>
<text text-anchor="start" x="1213.4055" y="-1487.8097" font-family="Times,serif" font-size="10.00" fill="#000000">: NUMBER</text>
<polygon fill="none" stroke="#000000" points="1171.7485,-1456.8097 1171.7485,-1478.8097 1291.7485,-1478.8097 1291.7485,-1456.8097 1171.7485,-1456.8097"/>
<text text-anchor="start" x="1176.7485" y="-1464.8097" font-family="Times,serif" font-size="10.00" fill="#000000">start_date: DATE</text>
<polygon fill="none" stroke="#000000" points="1171.7485,-1434.8097 1171.7485,-1456.8097 1291.7485,-1456.8097 1291.7485,-1434.8097 1171.7485,-1434.8097"/>
<text text-anchor="start" x="1176.7485" y="-1442.8097" font-family="Times,serif" font-size="10.00" fill="#000000">end_date: DATE</text>
<polygon fill="none" stroke="#000000" points="1171.7485,-1412.8097 1171.7485,-1434.8097 1291.7485,-1434.8097 1291.7485,-1412.8097 1171.7485,-1412.8097"/>
<text text-anchor="start" x="1176.7485" y="-1420.8097" font-family="Times,serif" font-size="10.00" fill="#000000">capacity: NUMBER</text>
<polygon fill="none" stroke="#000000" points="1171.7485,-1390.8097 1171.7485,-1412.8097 1291.7485,-1412.8097 1291.7485,-1390.8097 1171.7485,-1390.8097"/>
<text text-anchor="start" x="1176.7485" y="-1399.8097" font-family="Times,serif" font-style="italic" text-decoration="underline" font-size="10.00" fill="#000000">created_by</text>
<text text-anchor="start" x="1220.6125" y="-1399.8097" font-family="Times,serif" font-size="10.00" fill="#000000">: NUMBER</text>
<polygon fill="none" stroke="#000000" points="1171.7485,-1368.8097 1171.7485,-1390.8097 1291.7485,-1390.8097 1291.7485,-1368.8097 1171.7485,-1368.8097"/>
<text text-anchor="start" x="1176.7485" y="-1376.8097" font-family="Times,serif" font-size="10.00" fill="#000000">status: ENUM</text>
<polygon fill="none" stroke="#000000" points="1171.7485,-1346.8097 1171.7485,-1368.8097 1291.7485,-1368.8097 1291.7485,-1346.8097 1171.7485,-1346.8097"/>
<text text-anchor="start" x="1176.7485" y="-1354.8097" font-family="Times,serif" font-size="10.00" fill="#000000">audience_scope: ENUM</text>
<polygon fill="none" stroke="#000000" points="1171.7485,-1324.8097 1171.7485,-1346.8097 1291.7485,-1346.8097 1291.7485,-1324.8097 1171.7485,-1324.8097"/>
<text text-anchor="start" x="1176.7485" y="-1332.8097" font-family="Times,serif" font-size="10.00" fill="#000000">created_at: DATE</text>
<polygon fill="none" stroke="#000000" points="1171.7485,-1302.8097 1171.7485,-1324.8097 1291.7485,-1324.8097 1291.7485,-1302.8097 1171.7485,-1302.8097"/>
<text text-anchor="start" x="1176.7485" y="-1310.8097" font-family="Times,serif" font-size="10.00" fill="#000000">updated_at: DATE</text>
</g>
<!-- Event&#45;&gt;AcademicSession -->
<g id="edge10" class="edge">
<title>Event&#45;&gt;AcademicSession</title>
<path fill="none" stroke="#000000" stroke-width=".75" d="M1165.9091,-1466.0084C952.8128,-1353.3702 284.9028,-1000.3271 98.0222,-901.546"/>
<polygon fill="#000000" stroke="#000000" stroke-width=".75" points="1166.1652,-1466.1437 1170.208,-1471.3347 1168.8175,-1467.5457 1171.4698,-1468.9477 1171.4698,-1468.9477 1171.4698,-1468.9477 1168.8175,-1467.5457 1172.7315,-1466.5606 1166.1652,-1466.1437 1166.1652,-1466.1437"/>
</g>
<!-- Event&#45;&gt;EventEnrollment -->
<g id="edge1" class="edge">
<title>Event&#45;&gt;EventEnrollment</title>
<path fill="none" stroke="#000000" stroke-width=".75" d="M1292.156,-1496.2004C1378.0201,-1489.6487 1534.5377,-1477.7059 1621.2198,-1471.0917"/>
<polygon fill="#000000" stroke="#000000" stroke-width=".75" points="1621.3557,-1471.0815 1627.5438,-1473.3171 1624.347,-1470.8532 1627.3383,-1470.6249 1627.3383,-1470.6249 1627.3383,-1470.6249 1624.347,-1470.8532 1627.1329,-1467.9327 1621.3557,-1471.0815 1621.3557,-1471.0815"/>
</g>
<!-- Organisation -->
<g id="node11" class="node">
<title>Organisation</title>
<polygon fill="#add8e6" stroke="transparent" points="2388.5915,-479.9823 2388.5915,-501.9823 2503.5915,-501.9823 2503.5915,-479.9823 2388.5915,-479.9823"/>
<polygon fill="none" stroke="#000000" points="2388.5915,-479.9823 2388.5915,-501.9823 2503.5915,-501.9823 2503.5915,-479.9823 2388.5915,-479.9823"/>
<text text-anchor="start" x="2420.2655" y="-488.9823" font-family="Times,serif" font-weight="bold" font-size="10.00" fill="#000000">Organisation</text>
<polygon fill="none" stroke="#000000" points="2388.5915,-457.9823 2388.5915,-479.9823 2503.5915,-479.9823 2503.5915,-457.9823 2388.5915,-457.9823"/>
<text text-anchor="start" x="2393.5915" y="-466.9823" font-family="Times,serif" text-decoration="underline" font-size="10.00" fill="#000000">id</text>
<text text-anchor="start" x="2401.3705" y="-466.9823" font-family="Times,serif" font-size="10.00" fill="#000000">: NUMBER</text>
<polygon fill="none" stroke="#000000" points="2388.5915,-435.9823 2388.5915,-457.9823 2503.5915,-457.9823 2503.5915,-435.9823 2388.5915,-435.9823"/>
<text text-anchor="start" x="2393.5915" y="-443.9823" font-family="Times,serif" font-size="10.00" fill="#000000">name: STRING</text>
<polygon fill="none" stroke="#000000" points="2388.5915,-413.9823 2388.5915,-435.9823 2503.5915,-435.9823 2503.5915,-413.9823 2388.5915,-413.9823"/>
<text text-anchor="start" x="2393.184" y="-422.9823" font-family="Times,serif" font-style="italic" text-decoration="underline" font-size="10.00" fill="#000000">department_id</text>
<text text-anchor="start" x="2450.946" y="-422.9823" font-family="Times,serif" font-size="10.00" fill="#000000">: NUMBER</text>
<polygon fill="none" stroke="#000000" points="2388.5915,-391.9823 2388.5915,-413.9823 2503.5915,-413.9823 2503.5915,-391.9823 2388.5915,-391.9823"/>
<text text-anchor="start" x="2393.5915" y="-400.9823" font-family="Times,serif" font-style="italic" text-decoration="underline" font-size="10.00" fill="#000000">faculty_id</text>
<text text-anchor="start" x="2434.1355" y="-400.9823" font-family="Times,serif" font-size="10.00" fill="#000000">: NUMBER</text>
<polygon fill="none" stroke="#000000" points="2388.5915,-369.9823 2388.5915,-391.9823 2503.5915,-391.9823 2503.5915,-369.9823 2388.5915,-369.9823"/>
<text text-anchor="start" x="2393.5915" y="-377.9823" font-family="Times,serif" font-size="10.00" fill="#000000">created_at: DATE</text>
<polygon fill="none" stroke="#000000" points="2388.5915,-347.9823 2388.5915,-369.9823 2503.5915,-369.9823 2503.5915,-347.9823 2388.5915,-347.9823"/>
<text text-anchor="start" x="2393.5915" y="-355.9823" font-family="Times,serif" font-size="10.00" fill="#000000">updated_at: DATE</text>
</g>
<!-- Event&#45;&gt;Organisation -->
<g id="edge9" class="edge">
<title>Event&#45;&gt;Organisation</title>
<path fill="none" stroke="#000000" stroke-width=".75" d="M1296.5814,-1443.3484C1509.5602,-1254.5855 2185.6139,-655.4 2387.881,-476.131"/>
<polygon fill="#000000" stroke="#000000" stroke-width=".75" points="1296.4334,-1443.4796 1290.1523,-1445.4387 1294.1883,-1445.4694 1291.9431,-1447.4593 1291.9431,-1447.4593 1291.9431,-1447.4593 1294.1883,-1445.4694 1293.734,-1449.4799 1296.4334,-1443.4796 1296.4334,-1443.4796"/>
</g>
<!-- User -->
<g id="node14" class="node">
<title>User</title>
<polygon fill="#add8e6" stroke="transparent" points="2035.0136,-1782.0653 2035.0136,-1804.0653 2186.0136,-1804.0653 2186.0136,-1782.0653 2035.0136,-1782.0653"/>
<polygon fill="none" stroke="#000000" points="2035.0136,-1782.0653 2035.0136,-1804.0653 2186.0136,-1804.0653 2186.0136,-1782.0653 2035.0136,-1782.0653"/>
<text text-anchor="start" x="2101.0756" y="-1791.0653" font-family="Times,serif" font-weight="bold" font-size="10.00" fill="#000000">User</text>
<polygon fill="none" stroke="#000000" points="2035.0136,-1760.0653 2035.0136,-1782.0653 2186.0136,-1782.0653 2186.0136,-1760.0653 2035.0136,-1760.0653"/>
<text text-anchor="start" x="2040.0136" y="-1769.0653" font-family="Times,serif" text-decoration="underline" font-size="10.00" fill="#000000">id</text>
<text text-anchor="start" x="2047.7926" y="-1769.0653" font-family="Times,serif" font-size="10.00" fill="#000000">: NUMBER</text>
<polygon fill="none" stroke="#000000" points="2035.0136,-1738.0653 2035.0136,-1760.0653 2186.0136,-1760.0653 2186.0136,-1738.0653 2035.0136,-1738.0653"/>
<text text-anchor="start" x="2040.0136" y="-1746.0653" font-family="Times,serif" font-size="10.00" fill="#000000">first_name: STRING</text>
<polygon fill="none" stroke="#000000" points="2035.0136,-1716.0653 2035.0136,-1738.0653 2186.0136,-1738.0653 2186.0136,-1716.0653 2035.0136,-1716.0653"/>
<text text-anchor="start" x="2040.0136" y="-1724.0653" font-family="Times,serif" font-size="10.00" fill="#000000">last_name: STRING</text>
<polygon fill="none" stroke="#000000" points="2035.0136,-1694.0653 2035.0136,-1716.0653 2186.0136,-1716.0653 2186.0136,-1694.0653 2035.0136,-1694.0653"/>
<text text-anchor="start" x="2040.0136" y="-1702.0653" font-family="Times,serif" font-size="10.00" fill="#000000">email: STRING</text>
<polygon fill="none" stroke="#000000" points="2035.0136,-1672.0653 2035.0136,-1694.0653 2186.0136,-1694.0653 2186.0136,-1672.0653 2035.0136,-1672.0653"/>
<text text-anchor="start" x="2040.0136" y="-1680.0653" font-family="Times,serif" font-size="10.00" fill="#000000">password: STRING</text>
<polygon fill="none" stroke="#000000" points="2035.0136,-1650.0653 2035.0136,-1672.0653 2186.0136,-1672.0653 2186.0136,-1650.0653 2035.0136,-1650.0653"/>
<text text-anchor="start" x="2040.0136" y="-1658.0653" font-family="Times,serif" font-size="10.00" fill="#000000">phone: STRING</text>
<polygon fill="none" stroke="#000000" points="2035.0136,-1628.0653 2035.0136,-1650.0653 2186.0136,-1650.0653 2186.0136,-1628.0653 2035.0136,-1628.0653"/>
<text text-anchor="start" x="2040.0136" y="-1636.0653" font-family="Times,serif" font-size="10.00" fill="#000000">gender: ENUM</text>
<polygon fill="none" stroke="#000000" points="2035.0136,-1606.0653 2035.0136,-1628.0653 2186.0136,-1628.0653 2186.0136,-1606.0653 2035.0136,-1606.0653"/>
<text text-anchor="start" x="2040.0136" y="-1614.0653" font-family="Times,serif" font-size="10.00" fill="#000000">profile_picture_url: VIRTUAL</text>
<polygon fill="none" stroke="#000000" points="2035.0136,-1584.0653 2035.0136,-1606.0653 2186.0136,-1606.0653 2186.0136,-1584.0653 2035.0136,-1584.0653"/>
<text text-anchor="start" x="2040.0136" y="-1592.0653" font-family="Times,serif" font-size="10.00" fill="#000000">role: ENUM</text>
<polygon fill="none" stroke="#000000" points="2035.0136,-1562.0653 2035.0136,-1584.0653 2186.0136,-1584.0653 2186.0136,-1562.0653 2035.0136,-1562.0653"/>
<text text-anchor="start" x="2040.0136" y="-1570.0653" font-family="Times,serif" font-size="10.00" fill="#000000">email_verified: BOOLEAN</text>
<polygon fill="none" stroke="#000000" points="2035.0136,-1540.0653 2035.0136,-1562.0653 2186.0136,-1562.0653 2186.0136,-1540.0653 2035.0136,-1540.0653"/>
<text text-anchor="start" x="2040.0136" y="-1548.0653" font-family="Times,serif" font-size="10.00" fill="#000000">is_active: BOOLEAN</text>
<polygon fill="none" stroke="#000000" points="2035.0136,-1518.0653 2035.0136,-1540.0653 2186.0136,-1540.0653 2186.0136,-1518.0653 2035.0136,-1518.0653"/>
<text text-anchor="start" x="2040.0136" y="-1526.0653" font-family="Times,serif" font-size="10.00" fill="#000000">two_factor_secret: STRING</text>
<polygon fill="none" stroke="#000000" points="2035.0136,-1496.0653 2035.0136,-1518.0653 2186.0136,-1518.0653 2186.0136,-1496.0653 2035.0136,-1496.0653"/>
<text text-anchor="start" x="2040.0136" y="-1504.0653" font-family="Times,serif" font-size="10.00" fill="#000000">two_factor_enabled: BOOLEAN</text>
<polygon fill="none" stroke="#000000" points="2035.0136,-1474.0653 2035.0136,-1496.0653 2186.0136,-1496.0653 2186.0136,-1474.0653 2035.0136,-1474.0653"/>
<text text-anchor="start" x="2039.5736" y="-1482.0653" font-family="Times,serif" font-size="10.00" fill="#000000">two_factor_recovery_codes: TEXT</text>
<polygon fill="none" stroke="#000000" points="2035.0136,-1452.0653 2035.0136,-1474.0653 2186.0136,-1474.0653 2186.0136,-1452.0653 2035.0136,-1452.0653"/>
<text text-anchor="start" x="2040.0136" y="-1460.0653" font-family="Times,serif" font-size="10.00" fill="#000000">created_at: DATE</text>
<polygon fill="none" stroke="#000000" points="2035.0136,-1430.0653 2035.0136,-1452.0653 2186.0136,-1452.0653 2186.0136,-1430.0653 2035.0136,-1430.0653"/>
<text text-anchor="start" x="2040.0136" y="-1438.0653" font-family="Times,serif" font-size="10.00" fill="#000000">updated_at: DATE</text>
</g>
<!-- Event&#45;&gt;User -->
<g id="edge7" class="edge">
<title>Event&#45;&gt;User</title>
<path fill="none" stroke="#000000" stroke-width=".75" d="M1297.8167,-1509.5551C1457.7864,-1530.7303 1865.1861,-1584.6576 2034.4698,-1607.0656"/>
<polygon fill="#000000" stroke="#000000" stroke-width=".75" points="1297.7177,-1509.5421 1292.1239,-1506.078 1294.7436,-1509.1484 1291.7695,-1508.7547 1291.7695,-1508.7547 1291.7695,-1508.7547 1294.7436,-1509.1484 1291.4152,-1511.4313 1297.7177,-1509.5421 1297.7177,-1509.5421"/>
</g>
<!-- Venue -->
<g id="node15" class="node">
<title>Venue</title>
<polygon fill="#add8e6" stroke="transparent" points="1062.0012,-1747.0752 1062.0012,-1769.0752 1153.0012,-1769.0752 1153.0012,-1747.0752 1062.0012,-1747.0752"/>
<polygon fill="none" stroke="#000000" points="1062.0012,-1747.0752 1062.0012,-1769.0752 1153.0012,-1769.0752 1153.0012,-1747.0752 1062.0012,-1747.0752"/>
<text text-anchor="start" x="1094.4527" y="-1756.0752" font-family="Times,serif" font-weight="bold" font-size="10.00" fill="#000000">Venue</text>
<polygon fill="none" stroke="#000000" points="1062.0012,-1725.0752 1062.0012,-1747.0752 1153.0012,-1747.0752 1153.0012,-1725.0752 1062.0012,-1725.0752"/>
<text text-anchor="start" x="1067.0012" y="-1734.0752" font-family="Times,serif" text-decoration="underline" font-size="10.00" fill="#000000">id</text>
<text text-anchor="start" x="1074.7802" y="-1734.0752" font-family="Times,serif" font-size="10.00" fill="#000000">: NUMBER</text>
<polygon fill="none" stroke="#000000" points="1062.0012,-1703.0752 1062.0012,-1725.0752 1153.0012,-1725.0752 1153.0012,-1703.0752 1062.0012,-1703.0752"/>
<text text-anchor="start" x="1067.0012" y="-1711.0752" font-family="Times,serif" font-size="10.00" fill="#000000">name: STRING</text>
<polygon fill="none" stroke="#000000" points="1062.0012,-1681.0752 1062.0012,-1703.0752 1153.0012,-1703.0752 1153.0012,-1681.0752 1062.0012,-1681.0752"/>
<text text-anchor="start" x="1067.0012" y="-1689.0752" font-family="Times,serif" font-size="10.00" fill="#000000">type: ENUM</text>
<polygon fill="none" stroke="#000000" points="1062.0012,-1659.0752 1062.0012,-1681.0752 1153.0012,-1681.0752 1153.0012,-1659.0752 1062.0012,-1659.0752"/>
<text text-anchor="start" x="1066.8177" y="-1667.0752" font-family="Times,serif" font-size="10.00" fill="#000000">capacity: NUMBER</text>
<polygon fill="none" stroke="#000000" points="1062.0012,-1637.0752 1062.0012,-1659.0752 1153.0012,-1659.0752 1153.0012,-1637.0752 1062.0012,-1637.0752"/>
<text text-anchor="start" x="1067.0012" y="-1645.0752" font-family="Times,serif" font-size="10.00" fill="#000000">status: ENUM</text>
<polygon fill="none" stroke="#000000" points="1062.0012,-1615.0752 1062.0012,-1637.0752 1153.0012,-1637.0752 1153.0012,-1615.0752 1062.0012,-1615.0752"/>
<text text-anchor="start" x="1067.0012" y="-1623.0752" font-family="Times,serif" font-size="10.00" fill="#000000">location: TEXT</text>
<polygon fill="none" stroke="#000000" points="1062.0012,-1593.0752 1062.0012,-1615.0752 1153.0012,-1615.0752 1153.0012,-1593.0752 1062.0012,-1593.0752"/>
<text text-anchor="start" x="1067.0012" y="-1601.0752" font-family="Times,serif" font-size="10.00" fill="#000000">images: ARRAY</text>
<polygon fill="none" stroke="#000000" points="1062.0012,-1571.0752 1062.0012,-1593.0752 1153.0012,-1593.0752 1153.0012,-1571.0752 1062.0012,-1571.0752"/>
<text text-anchor="start" x="1067.0012" y="-1579.0752" font-family="Times,serif" font-size="10.00" fill="#000000">thumbnail: TEXT</text>
<polygon fill="none" stroke="#000000" points="1062.0012,-1549.0752 1062.0012,-1571.0752 1153.0012,-1571.0752 1153.0012,-1549.0752 1062.0012,-1549.0752"/>
<text text-anchor="start" x="1067.0012" y="-1557.0752" font-family="Times,serif" font-size="10.00" fill="#000000">created_at: DATE</text>
<polygon fill="none" stroke="#000000" points="1062.0012,-1527.0752 1062.0012,-1549.0752 1153.0012,-1549.0752 1153.0012,-1527.0752 1062.0012,-1527.0752"/>
<text text-anchor="start" x="1067.0012" y="-1535.0752" font-family="Times,serif" font-size="10.00" fill="#000000">updated_at: DATE</text>
</g>
<!-- Event&#45;&gt;Venue -->
<g id="edge8" class="edge">
<title>Event&#45;&gt;Venue</title>
<path fill="none" stroke="#000000" stroke-width=".75" d="M1167.3951,-1576.7795C1162.4297,-1582.6413 1157.481,-1588.4833 1152.675,-1594.1567"/>
<polygon fill="#000000" stroke="#000000" stroke-width=".75" points="1167.6891,-1576.4325 1173.6274,-1573.5995 1169.6282,-1574.1434 1171.5672,-1571.8543 1171.5672,-1571.8543 1171.5672,-1571.8543 1169.6282,-1574.1434 1169.507,-1570.1091 1167.6891,-1576.4325 1167.6891,-1576.4325"/>
</g>
<!-- EventAudienceRule -->
<g id="node5" class="node">
<title>EventAudienceRule</title>
<polygon fill="#add8e6" stroke="transparent" points="931.822,-1192.2521 931.822,-1214.2521 1023.822,-1214.2521 1023.822,-1192.2521 931.822,-1192.2521"/>
<polygon fill="none" stroke="#000000" points="931.822,-1192.2521 931.822,-1214.2521 1023.822,-1214.2521 1023.822,-1192.2521 931.822,-1192.2521"/>
<text text-anchor="start" x="937.5575" y="-1201.2521" font-family="Times,serif" font-weight="bold" font-size="10.00" fill="#000000">EventAudienceRule</text>
<polygon fill="none" stroke="#000000" points="931.822,-1170.2521 931.822,-1192.2521 1023.822,-1192.2521 1023.822,-1170.2521 931.822,-1170.2521"/>
<text text-anchor="start" x="936.822" y="-1179.2521" font-family="Times,serif" text-decoration="underline" font-size="10.00" fill="#000000">id</text>
<text text-anchor="start" x="944.601" y="-1179.2521" font-family="Times,serif" font-size="10.00" fill="#000000">: NUMBER</text>
<polygon fill="none" stroke="#000000" points="931.822,-1148.2521 931.822,-1170.2521 1023.822,-1170.2521 1023.822,-1148.2521 931.822,-1148.2521"/>
<text text-anchor="start" x="936.5775" y="-1157.2521" font-family="Times,serif" font-style="italic" text-decoration="underline" font-size="10.00" fill="#000000">event_id</text>
<text text-anchor="start" x="971.0135" y="-1157.2521" font-family="Times,serif" font-size="10.00" fill="#000000">: NUMBER</text>
<polygon fill="none" stroke="#000000" points="931.822,-1126.2521 931.822,-1148.2521 1023.822,-1148.2521 1023.822,-1126.2521 931.822,-1126.2521"/>
<text text-anchor="start" x="936.822" y="-1134.2521" font-family="Times,serif" font-size="10.00" fill="#000000">role: ENUM</text>
<polygon fill="none" stroke="#000000" points="931.822,-1104.2521 931.822,-1126.2521 1023.822,-1126.2521 1023.822,-1104.2521 931.822,-1104.2521"/>
<text text-anchor="start" x="936.822" y="-1112.2521" font-family="Times,serif" font-size="10.00" fill="#000000">staff_type: ENUM</text>
<polygon fill="none" stroke="#000000" points="931.822,-1082.2521 931.822,-1104.2521 1023.822,-1104.2521 1023.822,-1082.2521 931.822,-1082.2521"/>
<text text-anchor="start" x="936.822" y="-1091.2521" font-family="Times,serif" font-style="italic" text-decoration="underline" font-size="10.00" fill="#000000">level_id</text>
<text text-anchor="start" x="969.037" y="-1091.2521" font-family="Times,serif" font-size="10.00" fill="#000000">: NUMBER</text>
<polygon fill="none" stroke="#000000" points="931.822,-1060.2521 931.822,-1082.2521 1023.822,-1082.2521 1023.822,-1060.2521 931.822,-1060.2521"/>
<text text-anchor="start" x="936.822" y="-1068.2521" font-family="Times,serif" font-size="10.00" fill="#000000">gender: ENUM</text>
<polygon fill="none" stroke="#000000" points="931.822,-1038.2521 931.822,-1060.2521 1023.822,-1060.2521 1023.822,-1038.2521 931.822,-1038.2521"/>
<text text-anchor="start" x="936.822" y="-1046.2521" font-family="Times,serif" font-size="10.00" fill="#000000">created_at: DATE</text>
<polygon fill="none" stroke="#000000" points="931.822,-1016.2521 931.822,-1038.2521 1023.822,-1038.2521 1023.822,-1016.2521 931.822,-1016.2521"/>
<text text-anchor="start" x="936.822" y="-1024.2521" font-family="Times,serif" font-size="10.00" fill="#000000">updated_at: DATE</text>
</g>
<!-- EventAudienceRule&#45;&gt;Event -->
<g id="edge11" class="edge">
<title>EventAudienceRule&#45;&gt;Event</title>
<path fill="none" stroke="#000000" stroke-width=".75" d="M1027.5411,-1190.7446C1068.8359,-1253.4459 1127.7165,-1342.8493 1171.6503,-1409.5577"/>
<polygon fill="#000000" stroke="#000000" stroke-width=".75" points="1027.401,-1190.5319 1026.3557,-1184.0359 1025.7509,-1188.0264 1024.1008,-1185.521 1024.1008,-1185.521 1024.1008,-1185.521 1025.7509,-1188.0264 1021.8459,-1187.0061 1027.401,-1190.5319 1027.401,-1190.5319"/>
</g>
<!-- Level -->
<g id="node10" class="node">
<title>Level</title>
<polygon fill="#add8e6" stroke="transparent" points="930.6537,-708.6173 930.6537,-730.6173 1015.6537,-730.6173 1015.6537,-708.6173 930.6537,-708.6173"/>
<polygon fill="none" stroke="#000000" points="930.6537,-708.6173 930.6537,-730.6173 1015.6537,-730.6173 1015.6537,-708.6173 930.6537,-708.6173"/>
<text text-anchor="start" x="961.7707" y="-717.6173" font-family="Times,serif" font-weight="bold" font-size="10.00" fill="#000000">Level</text>
<polygon fill="none" stroke="#000000" points="930.6537,-686.6173 930.6537,-708.6173 1015.6537,-708.6173 1015.6537,-686.6173 930.6537,-686.6173"/>
<text text-anchor="start" x="935.6537" y="-695.6173" font-family="Times,serif" text-decoration="underline" font-size="10.00" fill="#000000">id</text>
<text text-anchor="start" x="943.4327" y="-695.6173" font-family="Times,serif" font-size="10.00" fill="#000000">: NUMBER</text>
<polygon fill="none" stroke="#000000" points="930.6537,-664.6173 930.6537,-686.6173 1015.6537,-686.6173 1015.6537,-664.6173 930.6537,-664.6173"/>
<text text-anchor="start" x="935.6537" y="-672.6173" font-family="Times,serif" font-size="10.00" fill="#000000">name: STRING</text>
<polygon fill="none" stroke="#000000" points="930.6537,-642.6173 930.6537,-664.6173 1015.6537,-664.6173 1015.6537,-642.6173 930.6537,-642.6173"/>
<text text-anchor="start" x="935.6537" y="-650.6173" font-family="Times,serif" font-size="10.00" fill="#000000">code: STRING</text>
<polygon fill="none" stroke="#000000" points="930.6537,-620.6173 930.6537,-642.6173 1015.6537,-642.6173 1015.6537,-620.6173 930.6537,-620.6173"/>
<text text-anchor="start" x="935.6537" y="-628.6173" font-family="Times,serif" font-size="10.00" fill="#000000">category: ENUM</text>
<polygon fill="none" stroke="#000000" points="930.6537,-598.6173 930.6537,-620.6173 1015.6537,-620.6173 1015.6537,-598.6173 930.6537,-598.6173"/>
<text text-anchor="start" x="935.6537" y="-606.6173" font-family="Times,serif" font-size="10.00" fill="#000000">created_at: DATE</text>
<polygon fill="none" stroke="#000000" points="930.6537,-576.6173 930.6537,-598.6173 1015.6537,-598.6173 1015.6537,-576.6173 930.6537,-576.6173"/>
<text text-anchor="start" x="935.2487" y="-584.6173" font-family="Times,serif" font-size="10.00" fill="#000000">updated_at: DATE</text>
</g>
<!-- EventAudienceRule&#45;&gt;Level -->
<g id="edge12" class="edge">
<title>EventAudienceRule&#45;&gt;Level</title>
<path fill="none" stroke="#000000" stroke-width=".75" d="M976.6454,-1010.1537C975.6932,-925.1009 974.374,-807.2746 973.5173,-730.7516"/>
<polygon fill="#000000" stroke="#000000" stroke-width=".75" points="976.646,-1010.2202 974.0135,-1016.2501 976.6797,-1013.22 976.7133,-1016.2198 976.7133,-1016.2198 976.7133,-1016.2198 976.6797,-1013.22 979.4131,-1016.1896 976.646,-1010.2202 976.646,-1010.2202"/>
</g>
<!-- EventOrganiserProfile -->
<g id="node7" class="node">
<title>EventOrganiserProfile</title>
<polygon fill="#add8e6" stroke="transparent" points="2520.608,-910.4615 2520.608,-932.4615 2640.608,-932.4615 2640.608,-910.4615 2520.608,-910.4615"/>
<polygon fill="none" stroke="#000000" points="2520.608,-910.4615 2520.608,-932.4615 2640.608,-932.4615 2640.608,-910.4615 2520.608,-910.4615"/>
<text text-anchor="start" x="2535.626" y="-919.4615" font-family="Times,serif" font-weight="bold" font-size="10.00" fill="#000000">EventOrganiserProfile</text>
<polygon fill="none" stroke="#000000" points="2520.608,-888.4615 2520.608,-910.4615 2640.608,-910.4615 2640.608,-888.4615 2520.608,-888.4615"/>
<text text-anchor="start" x="2525.608" y="-897.4615" font-family="Times,serif" text-decoration="underline" font-size="10.00" fill="#000000">id</text>
<text text-anchor="start" x="2533.387" y="-897.4615" font-family="Times,serif" font-size="10.00" fill="#000000">: NUMBER</text>
<polygon fill="none" stroke="#000000" points="2520.608,-866.4615 2520.608,-888.4615 2640.608,-888.4615 2640.608,-866.4615 2520.608,-866.4615"/>
<text text-anchor="start" x="2525.608" y="-875.4615" font-family="Times,serif" font-style="italic" text-decoration="underline" font-size="10.00" fill="#000000">user_id</text>
<text text-anchor="start" x="2555.044" y="-875.4615" font-family="Times,serif" font-size="10.00" fill="#000000">: NUMBER</text>
<polygon fill="none" stroke="#000000" points="2520.608,-844.4615 2520.608,-866.4615 2640.608,-866.4615 2640.608,-844.4615 2520.608,-844.4615"/>
<text text-anchor="start" x="2525.4755" y="-853.4615" font-family="Times,serif" font-style="italic" text-decoration="underline" font-size="10.00" fill="#000000">organisation_id</text>
<text text-anchor="start" x="2587.6875" y="-853.4615" font-family="Times,serif" font-size="10.00" fill="#000000">: NUMBER</text>
<polygon fill="none" stroke="#000000" points="2520.608,-822.4615 2520.608,-844.4615 2640.608,-844.4615 2640.608,-822.4615 2520.608,-822.4615"/>
<text text-anchor="start" x="2525.608" y="-830.4615" font-family="Times,serif" font-size="10.00" fill="#000000">created_at: DATE</text>
<polygon fill="none" stroke="#000000" points="2520.608,-800.4615 2520.608,-822.4615 2640.608,-822.4615 2640.608,-800.4615 2520.608,-800.4615"/>
<text text-anchor="start" x="2525.608" y="-808.4615" font-family="Times,serif" font-size="10.00" fill="#000000">updated_at: DATE</text>
</g>
<!-- EventOrganiserProfile&#45;&gt;Organisation -->
<g id="edge14" class="edge">
<title>EventOrganiserProfile&#45;&gt;Organisation</title>
<path fill="none" stroke="#000000" stroke-width=".75" d="M2558.5056,-794.1907C2533.939,-713.8626 2494.4181,-584.6365 2469.2432,-502.3191"/>
<polygon fill="#000000" stroke="#000000" stroke-width=".75" points="2558.6398,-794.6299 2557.8127,-801.1573 2559.5172,-797.4988 2560.3946,-800.3676 2560.3946,-800.3676 2560.3946,-800.3676 2559.5172,-797.4988 2562.9766,-799.5779 2558.6398,-794.6299 2558.6398,-794.6299"/>
</g>
<!-- EventOrganiserProfile&#45;&gt;User -->
<g id="edge13" class="edge">
<title>EventOrganiserProfile&#45;&gt;User</title>
<path fill="none" stroke="#000000" stroke-width=".75" d="M2539.0523,-932.7433C2459.8191,-1059.1212 2286.1108,-1336.1881 2185.7173,-1496.317"/>
</g>
<!-- Facility -->
<g id="node8" class="node">
<title>Facility</title>
<polygon fill="#add8e6" stroke="transparent" points="760.7369,-2045.3596 760.7369,-2067.3596 855.7369,-2067.3596 855.7369,-2045.3596 760.7369,-2045.3596"/>
<polygon fill="none" stroke="#000000" points="760.7369,-2045.3596 760.7369,-2067.3596 855.7369,-2067.3596 855.7369,-2045.3596 760.7369,-2045.3596"/>
<text text-anchor="start" x="792.9604" y="-2054.3596" font-family="Times,serif" font-weight="bold" font-size="10.00" fill="#000000">Facility</text>
<polygon fill="none" stroke="#000000" points="760.7369,-2023.3596 760.7369,-2045.3596 855.7369,-2045.3596 855.7369,-2023.3596 760.7369,-2023.3596"/>
<text text-anchor="start" x="765.7369" y="-2032.3596" font-family="Times,serif" text-decoration="underline" font-size="10.00" fill="#000000">id</text>
<text text-anchor="start" x="773.5159" y="-2032.3596" font-family="Times,serif" font-size="10.00" fill="#000000">: NUMBER</text>
<polygon fill="none" stroke="#000000" points="760.7369,-2001.3596 760.7369,-2023.3596 855.7369,-2023.3596 855.7369,-2001.3596 760.7369,-2001.3596"/>
<text text-anchor="start" x="765.7369" y="-2009.3596" font-family="Times,serif" font-size="10.00" fill="#000000">name: STRING</text>
<polygon fill="none" stroke="#000000" points="760.7369,-1979.3596 760.7369,-2001.3596 855.7369,-2001.3596 855.7369,-1979.3596 760.7369,-1979.3596"/>
<text text-anchor="start" x="765.3289" y="-1987.3596" font-family="Times,serif" font-size="10.00" fill="#000000">description: STRING</text>
<polygon fill="none" stroke="#000000" points="760.7369,-1957.3596 760.7369,-1979.3596 855.7369,-1979.3596 855.7369,-1957.3596 760.7369,-1957.3596"/>
<text text-anchor="start" x="765.7369" y="-1965.3596" font-family="Times,serif" font-size="10.00" fill="#000000">created_at: DATE</text>
<polygon fill="none" stroke="#000000" points="760.7369,-1935.3596 760.7369,-1957.3596 855.7369,-1957.3596 855.7369,-1935.3596 760.7369,-1935.3596"/>
<text text-anchor="start" x="765.7369" y="-1943.3596" font-family="Times,serif" font-size="10.00" fill="#000000">updated_at: DATE</text>
</g>
<!-- VenueFacility -->
<g id="node16" class="node">
<title>VenueFacility</title>
<polygon fill="#add8e6" stroke="transparent" points="890.5942,-1889.7008 890.5942,-1911.7008 989.5942,-1911.7008 989.5942,-1889.7008 890.5942,-1889.7008"/>
<polygon fill="none" stroke="#000000" points="890.5942,-1889.7008 890.5942,-1911.7008 989.5942,-1911.7008 989.5942,-1889.7008 890.5942,-1889.7008"/>
<text text-anchor="start" x="911.7692" y="-1898.7008" font-family="Times,serif" font-weight="bold" font-size="10.00" fill="#000000">VenueFacility</text>
<polygon fill="none" stroke="#000000" points="890.5942,-1867.7008 890.5942,-1889.7008 989.5942,-1889.7008 989.5942,-1867.7008 890.5942,-1867.7008"/>
<text text-anchor="start" x="895.5942" y="-1876.7008" font-family="Times,serif" text-decoration="underline" font-size="10.00" fill="#000000">id</text>
<text text-anchor="start" x="903.3732" y="-1876.7008" font-family="Times,serif" font-size="10.00" fill="#000000">: NUMBER</text>
<polygon fill="none" stroke="#000000" points="890.5942,-1845.7008 890.5942,-1867.7008 989.5942,-1867.7008 989.5942,-1845.7008 890.5942,-1845.7008"/>
<text text-anchor="start" x="895.5942" y="-1854.7008" font-family="Times,serif" font-style="italic" text-decoration="underline" font-size="10.00" fill="#000000">venue_id</text>
<text text-anchor="start" x="932.2512" y="-1854.7008" font-family="Times,serif" font-size="10.00" fill="#000000">: NUMBER</text>
<polygon fill="none" stroke="#000000" points="890.5942,-1823.7008 890.5942,-1845.7008 989.5942,-1845.7008 989.5942,-1823.7008 890.5942,-1823.7008"/>
<text text-anchor="start" x="895.5167" y="-1832.7008" font-family="Times,serif" font-style="italic" text-decoration="underline" font-size="10.00" fill="#000000">facility_id</text>
<text text-anchor="start" x="936.6187" y="-1832.7008" font-family="Times,serif" font-size="10.00" fill="#000000">: NUMBER</text>
<polygon fill="none" stroke="#000000" points="890.5942,-1801.7008 890.5942,-1823.7008 989.5942,-1823.7008 989.5942,-1801.7008 890.5942,-1801.7008"/>
<text text-anchor="start" x="895.5942" y="-1809.7008" font-family="Times,serif" font-size="10.00" fill="#000000">created_at: DATE</text>
<polygon fill="none" stroke="#000000" points="890.5942,-1779.7008 890.5942,-1801.7008 989.5942,-1801.7008 989.5942,-1779.7008 890.5942,-1779.7008"/>
<text text-anchor="start" x="895.5942" y="-1787.7008" font-family="Times,serif" font-size="10.00" fill="#000000">updated_at: DATE</text>
</g>
<!-- Facility&#45;&gt;VenueFacility -->
<g id="edge2" class="edge">
<title>Facility&#45;&gt;VenueFacility</title>
<path fill="none" stroke="#000000" stroke-width=".75" d="M855.3404,-1945.1632C865.3042,-1933.4009 875.8746,-1920.9224 886.0381,-1908.9243"/>
<polygon fill="#000000" stroke="#000000" stroke-width=".75" points="886.1834,-1908.7527 892.1218,-1905.9197 888.1225,-1906.4636 890.0616,-1904.1745 890.0616,-1904.1745 890.0616,-1904.1745 888.1225,-1906.4636 888.0014,-1902.4293 886.1834,-1908.7527 886.1834,-1908.7527"/>
</g>
<!-- Organisation&#45;&gt;Department -->
<g id="edge16" class="edge">
<title>Organisation&#45;&gt;Department</title>
<path fill="none" stroke="#000000" stroke-width=".75" d="M2382.9414,-371.912C2314.2521,-313.7258 2205.4614,-221.5701 2142.5987,-168.3197"/>
<polygon fill="#000000" stroke="#000000" stroke-width=".75" points="2383.2383,-372.1635 2386.0714,-378.1018 2385.5274,-374.1026 2387.8165,-376.0416 2387.8165,-376.0416 2387.8165,-376.0416 2385.5274,-374.1026 2389.5617,-373.9814 2383.2383,-372.1635 2383.2383,-372.1635"/>
</g>
<!-- Organisation&#45;&gt;Faculty -->
<g id="edge15" class="edge">
<title>Organisation&#45;&gt;Faculty</title>
<path fill="none" stroke="#000000" stroke-width=".75" d="M2382.4582,-397.0002C2223.8648,-326.708 1811.8957,-144.1138 1678.2167,-84.8643"/>
<polygon fill="#000000" stroke="#000000" stroke-width=".75" points="2382.5068,-397.0217 2386.898,-401.9214 2385.2495,-398.2373 2387.9921,-399.4529 2387.9921,-399.4529 2387.9921,-399.4529 2385.2495,-398.2373 2389.0862,-396.9845 2382.5068,-397.0217 2382.5068,-397.0217"/>
</g>
<!-- StaffProfile -->
<g id="node12" class="node">
<title>StaffProfile</title>
<polygon fill="#add8e6" stroke="transparent" points="1160.8844,-339.4713 1160.8844,-361.4713 1275.8844,-361.4713 1275.8844,-339.4713 1160.8844,-339.4713"/>
<polygon fill="none" stroke="#000000" points="1160.8844,-339.4713 1160.8844,-361.4713 1275.8844,-361.4713 1275.8844,-339.4713 1160.8844,-339.4713"/>
<text text-anchor="start" x="1195.0599" y="-348.4713" font-family="Times,serif" font-weight="bold" font-size="10.00" fill="#000000">StaffProfile</text>
<polygon fill="none" stroke="#000000" points="1160.8844,-317.4713 1160.8844,-339.4713 1275.8844,-339.4713 1275.8844,-317.4713 1160.8844,-317.4713"/>
<text text-anchor="start" x="1165.8844" y="-326.4713" font-family="Times,serif" text-decoration="underline" font-size="10.00" fill="#000000">id</text>
<text text-anchor="start" x="1173.6634" y="-326.4713" font-family="Times,serif" font-size="10.00" fill="#000000">: NUMBER</text>
<polygon fill="none" stroke="#000000" points="1160.8844,-295.4713 1160.8844,-317.4713 1275.8844,-317.4713 1275.8844,-295.4713 1160.8844,-295.4713"/>
<text text-anchor="start" x="1165.8844" y="-304.4713" font-family="Times,serif" font-style="italic" text-decoration="underline" font-size="10.00" fill="#000000">user_id</text>
<text text-anchor="start" x="1195.3204" y="-304.4713" font-family="Times,serif" font-size="10.00" fill="#000000">: NUMBER</text>
<polygon fill="none" stroke="#000000" points="1160.8844,-273.4713 1160.8844,-295.4713 1275.8844,-295.4713 1275.8844,-273.4713 1160.8844,-273.4713"/>
<text text-anchor="start" x="1165.8844" y="-281.4713" font-family="Times,serif" font-size="10.00" fill="#000000">staff_id: STRING</text>
<polygon fill="none" stroke="#000000" points="1160.8844,-251.4713 1160.8844,-273.4713 1275.8844,-273.4713 1275.8844,-251.4713 1160.8844,-251.4713"/>
<text text-anchor="start" x="1165.8844" y="-260.4713" font-family="Times,serif" font-style="italic" text-decoration="underline" font-size="10.00" fill="#000000">faculty_id</text>
<text text-anchor="start" x="1206.4284" y="-260.4713" font-family="Times,serif" font-size="10.00" fill="#000000">: NUMBER</text>
<polygon fill="none" stroke="#000000" points="1160.8844,-229.4713 1160.8844,-251.4713 1275.8844,-251.4713 1275.8844,-229.4713 1160.8844,-229.4713"/>
<text text-anchor="start" x="1165.4769" y="-238.4713" font-family="Times,serif" font-style="italic" text-decoration="underline" font-size="10.00" fill="#000000">department_id</text>
<text text-anchor="start" x="1223.2389" y="-238.4713" font-family="Times,serif" font-size="10.00" fill="#000000">: NUMBER</text>
<polygon fill="none" stroke="#000000" points="1160.8844,-207.4713 1160.8844,-229.4713 1275.8844,-229.4713 1275.8844,-207.4713 1160.8844,-207.4713"/>
<text text-anchor="start" x="1165.8844" y="-215.4713" font-family="Times,serif" font-size="10.00" fill="#000000">staff_type: ENUM</text>
<polygon fill="none" stroke="#000000" points="1160.8844,-185.4713 1160.8844,-207.4713 1275.8844,-207.4713 1275.8844,-185.4713 1160.8844,-185.4713"/>
<text text-anchor="start" x="1165.8844" y="-193.4713" font-family="Times,serif" font-size="10.00" fill="#000000">created_at: DATE</text>
<polygon fill="none" stroke="#000000" points="1160.8844,-163.4713 1160.8844,-185.4713 1275.8844,-185.4713 1275.8844,-163.4713 1160.8844,-163.4713"/>
<text text-anchor="start" x="1165.8844" y="-171.4713" font-family="Times,serif" font-size="10.00" fill="#000000">updated_at: DATE</text>
</g>
<!-- StaffProfile&#45;&gt;Department -->
<g id="edge19" class="edge">
<title>StaffProfile&#45;&gt;Department</title>
<path fill="none" stroke="#000000" stroke-width=".75" d="M1281.9699,-252.5237C1449.0828,-226.5838 1895.4839,-157.2917 2044.2891,-134.1936"/>
<polygon fill="#000000" stroke="#000000" stroke-width=".75" points="1281.5922,-252.5822 1275.249,-250.8346 1278.6277,-253.0424 1275.6632,-253.5026 1275.6632,-253.5026 1275.6632,-253.5026 1278.6277,-253.0424 1276.0774,-256.1707 1281.5922,-252.5822 1281.5922,-252.5822"/>
</g>
<!-- StaffProfile&#45;&gt;Faculty -->
<g id="edge18" class="edge">
<title>StaffProfile&#45;&gt;Faculty</title>
<path fill="none" stroke="#000000" stroke-width=".75" d="M1281.1157,-232.7346C1367.3094,-192.199 1519.3825,-120.6813 1593.1495,-85.9898"/>
<polygon fill="#000000" stroke="#000000" stroke-width=".75" points="1280.9646,-232.8056 1274.386,-232.9158 1278.2498,-234.0823 1275.535,-235.3591 1275.535,-235.3591 1275.535,-235.3591 1278.2498,-234.0823 1276.6841,-237.8024 1280.9646,-232.8056 1280.9646,-232.8056"/>
</g>
<!-- StaffProfile&#45;&gt;User -->
<g id="edge17" class="edge">
<title>StaffProfile&#45;&gt;User</title>
<path fill="none" stroke="#000000" stroke-width=".75" d="M1275.3898,-349.7864C1430.877,-585.8757 1859.6574,-1236.9285 2034.404,-1502.2609"/>
</g>
<!-- StudentProfile -->
<g id="node13" class="node">
<title>StudentProfile</title>
<polygon fill="#add8e6" stroke="transparent" points="2398.5094,-1376.8529 2398.5094,-1398.8529 2513.5094,-1398.8529 2513.5094,-1376.8529 2398.5094,-1376.8529"/>
<polygon fill="none" stroke="#000000" points="2398.5094,-1376.8529 2398.5094,-1398.8529 2513.5094,-1398.8529 2513.5094,-1376.8529 2398.5094,-1376.8529"/>
<text text-anchor="start" x="2427.1244" y="-1385.8529" font-family="Times,serif" font-weight="bold" font-size="10.00" fill="#000000">StudentProfile</text>
<polygon fill="none" stroke="#000000" points="2398.5094,-1354.8529 2398.5094,-1376.8529 2513.5094,-1376.8529 2513.5094,-1354.8529 2398.5094,-1354.8529"/>
<text text-anchor="start" x="2403.5094" y="-1363.8529" font-family="Times,serif" text-decoration="underline" font-size="10.00" fill="#000000">id</text>
<text text-anchor="start" x="2411.2884" y="-1363.8529" font-family="Times,serif" font-size="10.00" fill="#000000">: NUMBER</text>
<polygon fill="none" stroke="#000000" points="2398.5094,-1332.8529 2398.5094,-1354.8529 2513.5094,-1354.8529 2513.5094,-1332.8529 2398.5094,-1332.8529"/>
<text text-anchor="start" x="2403.5094" y="-1341.8529" font-family="Times,serif" font-style="italic" text-decoration="underline" font-size="10.00" fill="#000000">user_id</text>
<text text-anchor="start" x="2432.9454" y="-1341.8529" font-family="Times,serif" font-size="10.00" fill="#000000">: NUMBER</text>
<polygon fill="none" stroke="#000000" points="2398.5094,-1310.8529 2398.5094,-1332.8529 2513.5094,-1332.8529 2513.5094,-1310.8529 2398.5094,-1310.8529"/>
<text text-anchor="start" x="2403.5094" y="-1318.8529" font-family="Times,serif" font-size="10.00" fill="#000000">matric_no: STRING</text>
<polygon fill="none" stroke="#000000" points="2398.5094,-1288.8529 2398.5094,-1310.8529 2513.5094,-1310.8529 2513.5094,-1288.8529 2398.5094,-1288.8529"/>
<text text-anchor="start" x="2403.1019" y="-1297.8529" font-family="Times,serif" font-style="italic" text-decoration="underline" font-size="10.00" fill="#000000">department_id</text>
<text text-anchor="start" x="2460.8639" y="-1297.8529" font-family="Times,serif" font-size="10.00" fill="#000000">: NUMBER</text>
<polygon fill="none" stroke="#000000" points="2398.5094,-1266.8529 2398.5094,-1288.8529 2513.5094,-1288.8529 2513.5094,-1266.8529 2398.5094,-1266.8529"/>
<text text-anchor="start" x="2403.5094" y="-1275.8529" font-family="Times,serif" font-style="italic" text-decoration="underline" font-size="10.00" fill="#000000">level_id</text>
<text text-anchor="start" x="2435.7244" y="-1275.8529" font-family="Times,serif" font-size="10.00" fill="#000000">: NUMBER</text>
<polygon fill="none" stroke="#000000" points="2398.5094,-1244.8529 2398.5094,-1266.8529 2513.5094,-1266.8529 2513.5094,-1244.8529 2398.5094,-1244.8529"/>
<text text-anchor="start" x="2403.5094" y="-1252.8529" font-family="Times,serif" font-size="10.00" fill="#000000">created_at: DATE</text>
<polygon fill="none" stroke="#000000" points="2398.5094,-1222.8529 2398.5094,-1244.8529 2513.5094,-1244.8529 2513.5094,-1222.8529 2398.5094,-1222.8529"/>
<text text-anchor="start" x="2403.5094" y="-1230.8529" font-family="Times,serif" font-size="10.00" fill="#000000">updated_at: DATE</text>
</g>
<!-- StudentProfile&#45;&gt;Department -->
<g id="edge21" class="edge">
<title>StudentProfile&#45;&gt;Department</title>
<path fill="none" stroke="#000000" stroke-width=".75" d="M2426.789,-1216.9426C2358.4398,-993.453 2186.8667,-432.4404 2120.3074,-214.8039"/>
<polygon fill="#000000" stroke="#000000" stroke-width=".75" points="2426.8279,-1217.0699 2426.0007,-1223.5972 2427.7053,-1219.9387 2428.5827,-1222.8076 2428.5827,-1222.8076 2428.5827,-1222.8076 2427.7053,-1219.9387 2431.1647,-1222.0179 2426.8279,-1217.0699 2426.8279,-1217.0699"/>
</g>
<!-- StudentProfile&#45;&gt;Level -->
<g id="edge22" class="edge">
<title>StudentProfile&#45;&gt;Level</title>
<path fill="none" stroke="#000000" stroke-width=".75" d="M2392.0414,-1282.7224C2141.5146,-1171.6832 1224.8034,-765.3758 1015.4327,-672.578"/>
<polygon fill="#000000" stroke="#000000" stroke-width=".75" points="2392.3494,-1282.8589 2396.7407,-1287.7586 2395.0921,-1284.0745 2397.8348,-1285.2902 2397.8348,-1285.2902 2397.8348,-1285.2902 2395.0921,-1284.0745 2398.9289,-1282.8218 2392.3494,-1282.8589 2392.3494,-1282.8589"/>
</g>
<!-- StudentProfile&#45;&gt;User -->
<g id="edge20" class="edge">
<title>StudentProfile&#45;&gt;User</title>
<path fill="none" stroke="#000000" stroke-width=".75" d="M2397.6812,-1362.1059C2339.4755,-1413.6936 2249.4137,-1493.5152 2185.5856,-1550.086"/>
</g>
<!-- User&#45;&gt;EventEnrollment -->
<g id="edge3" class="edge">
<title>User&#45;&gt;EventEnrollment</title>
<path fill="none" stroke="#000000" stroke-width=".75" d="M2034.1881,-1590.2972C1951.6449,-1561.1576 1821.2335,-1515.1194 1744.7498,-1488.119"/>
<polygon fill="#000000" stroke="#000000" stroke-width=".75" points="1744.5415,-1488.0456 1739.7826,-1483.5021 1741.7126,-1487.0469 1738.8837,-1486.0482 1738.8837,-1486.0482 1738.8837,-1486.0482 1741.7126,-1487.0469 1737.9849,-1488.5942 1744.5415,-1488.0456 1744.5415,-1488.0456"/>
</g>
<!-- Venue&#45;&gt;VenueFacility -->
<g id="edge4" class="edge">
<title>Venue&#45;&gt;VenueFacility</title>
<path fill="none" stroke="#000000" stroke-width=".75" d="M1061.4776,-1701.8162C1040.4224,-1726.6721 1015.2651,-1756.3705 993.2888,-1782.3138"/>
<polygon fill="#000000" stroke="#000000" stroke-width=".75" points="993.1022,-1782.534 987.1638,-1785.3671 991.1631,-1784.8232 989.224,-1787.1123 989.224,-1787.1123 989.224,-1787.1123 991.1631,-1784.8232 991.2842,-1788.8575 993.1022,-1782.534 993.1022,-1782.534"/>
</g>
</g>
</svg>
